<?xml version="1.0" standalone="no"?>
<!DOCTYPE svg PUBLIC "-//W3C//DTD SVG 20010904//EN"
 "http://www.w3.org/TR/2001/REC-SVG-20010904/DTD/svg10.dtd">
<svg version="1.0" xmlns="http://www.w3.org/2000/svg"
 width="400.000000pt" height="400.000000pt" viewBox="0 0 400.000000 400.000000"
 preserveAspectRatio="xMidYMid meet">
<metadata>
Created by potrace 1.14, written by Peter Selinger 2001-2017
</metadata>
<g transform="translate(0.000000,400.000000) scale(0.100000,-0.100000)"
fill="#000000" stroke="none">
<path d="M2058 3733 c-29 -3 -37 -9 -40 -26 -2 -16 -15 -26 -48 -36 -86 -27
-97 -32 -110 -57 -14 -26 -94 -84 -116 -84 -22 0 -34 -36 -34 -101 0 -52 -6
-74 -35 -130 -50 -96 -68 -182 -66 -313 1 -60 6 -116 10 -125 10 -17 -14 -60
-27 -51 -4 3 -8 -8 -10 -23 -3 -26 -2 -27 17 -18 24 13 31 14 31 2 0 -5 -10
-11 -22 -14 -22 -6 -19 -19 5 -23 7 -1 19 -5 28 -9 21 -8 29 30 29 139 0 44 5
99 10 121 6 22 14 83 20 135 11 113 41 218 74 257 23 28 24 28 132 26 147 -3
243 -9 251 -16 3 -4 13 -2 23 3 23 12 79 4 101 -16 10 -9 22 -14 26 -11 5 3
28 -3 52 -14 24 -10 50 -19 58 -19 34 0 71 -40 82 -87 12 -53 26 -351 25 -538
-1 -146 -24 -258 -59 -291 -13 -12 -26 -19 -29 -16 -3 3 -6 -1 -6 -10 0 -8
-12 -21 -26 -28 -23 -13 -27 -12 -36 4 -14 26 -46 56 -58 56 -6 0 -13 -6 -16
-14 -4 -11 -11 -10 -39 3 -43 19 -51 42 -28 78 18 26 17 27 -2 20 -12 -5 -31
-1 -51 9 -30 17 -34 17 -58 1 -31 -21 -34 -37 -6 -37 11 0 20 -6 20 -14 0 -7
-9 -16 -20 -19 -23 -6 -27 -45 -6 -53 8 -3 23 -1 33 4 23 13 83 -25 61 -39
-10 -7 -7 -11 10 -15 15 -4 21 -12 17 -22 -4 -11 0 -13 15 -8 11 3 29 9 39 12
17 5 19 1 18 -35 -2 -30 -10 -49 -30 -71 -16 -17 -25 -35 -21 -41 4 -7 3 -9
-3 -6 -6 4 -15 -12 -22 -34 -10 -35 -15 -39 -34 -33 -25 7 -58 44 -51 56 3 4
-2 8 -10 8 -8 0 -19 7 -24 16 -7 13 -17 15 -46 10 -35 -7 -37 -9 -31 -37 6
-26 3 -31 -15 -36 -13 -3 -19 -11 -16 -19 6 -16 -10 -19 -19 -4 -3 6 -14 10
-25 10 -10 0 -21 7 -24 16 -3 8 -10 13 -14 10 -14 -9 -46 57 -48 99 -1 22 -3
45 -4 50 -1 6 -2 34 -1 63 1 53 1 53 23 38 28 -20 38 -20 38 -1 0 8 -11 17
-25 21 -29 7 -34 24 -7 25 12 0 10 3 -8 10 -17 7 -26 7 -28 0 -2 -7 -9 -5 -18
3 -18 19 -18 25 3 48 24 27 9 33 -17 6 -20 -21 -21 -31 -18 -105 4 -80 -3
-107 -17 -60 -13 42 -71 91 -59 50 2 -10 -4 0 -15 22 -31 63 -24 21 14 -91 46
-133 115 -272 156 -311 17 -18 57 -44 88 -59 31 -15 64 -31 75 -36 10 -6 52
-12 92 -15 78 -6 124 10 124 43 0 10 6 14 15 10 8 -3 15 -1 15 5 0 6 5 9 12 7
16 -6 58 36 58 56 0 8 5 18 11 21 5 4 8 14 6 23 -4 21 24 98 68 182 18 36 41
96 49 134 9 37 19 73 23 80 8 12 9 17 11 54 1 13 12 27 27 34 17 8 27 22 31
47 4 20 12 47 19 61 24 46 28 95 12 142 -13 36 -14 57 -6 104 19 114 27 210
22 284 -4 67 -11 88 -64 195 -33 66 -73 137 -89 157 -17 20 -30 44 -30 53 0 8
-8 18 -17 21 -10 3 -31 12 -46 20 -16 7 -34 14 -41 14 -7 0 -21 9 -31 20 -10
11 -25 20 -33 20 -21 0 -77 18 -130 41 -23 11 -46 18 -50 17 -4 -1 -24 -3 -44
-5z m-217 -1370 c-9 -16 -10 -14 -11 12 0 21 3 26 11 18 8 -8 8 -16 0 -30z"/>
<path d="M1780 2962 c-23 -11 -36 -25 -38 -41 -4 -23 -3 -23 55 -16 40 4 77 2
114 -8 69 -18 103 -16 107 7 7 36 -21 48 -178 71 -14 2 -41 -4 -60 -13z"/>
<path d="M2288 2943 c-29 -3 -44 -12 -64 -39 -15 -19 -32 -34 -39 -34 -23 0
-34 -90 -15 -120 8 -12 10 -10 10 9 0 19 4 22 22 18 14 -4 29 0 40 10 17 15
20 14 42 -10 14 -15 33 -28 43 -29 58 -5 73 -4 73 2 0 4 10 6 23 6 17 -1 23 5
25 26 3 24 6 27 23 18 17 -10 19 -7 19 32 0 98 -53 126 -202 111z m107 -83 c4
-6 -10 -10 -34 -10 -21 0 -47 -3 -55 -6 -12 -5 -15 -2 -10 10 7 18 88 23 99 6z
m-155 -20 c-20 -13 -33 -13 -25 0 3 6 14 10 23 10 15 0 15 -2 2 -10z m129 -76
c-15 -18 -22 -13 -13 10 3 9 10 13 16 10 5 -3 4 -12 -3 -20z"/>
<path d="M1800 2860 c-4 -3 -10 -15 -14 -27 -6 -20 -4 -23 17 -23 14 0 28 6
31 13 4 7 8 8 11 2 14 -27 22 -33 53 -40 25 -5 32 -3 32 9 0 25 20 29 29 4 6
-13 10 -17 10 -10 1 6 7 12 15 12 27 0 29 22 3 46 -22 20 -34 23 -102 21 -42
-1 -80 -4 -85 -7z"/>
<path d="M1997 2534 c-13 -13 -7 -19 18 -20 16 -1 24 3 22 10 -4 13 -30 20
-40 10z"/>
<path d="M1965 2470 c-17 -18 -17 -20 -1 -20 9 0 19 7 23 15 9 25 -2 27 -22 5z"/>
<path d="M2010 2483 c0 -22 26 -73 37 -73 20 0 15 38 -7 60 -21 21 -30 25 -30
13z"/>
<path d="M1600 2030 c-8 -6 -28 -9 -45 -8 -36 2 -96 -17 -150 -47 -85 -49
-424 -175 -470 -175 -52 0 -145 -158 -205 -345 -18 -55 -52 -160 -77 -234 -34
-98 -49 -164 -59 -249 -7 -64 -21 -140 -30 -170 -17 -51 -16 -54 3 -80 46 -62
204 -120 351 -129 106 -7 100 4 78 -133 -30 -189 -74 -380 -87 -380 -4 0 -5
-8 -2 -19 3 -10 0 -22 -6 -25 -20 -13 -12 -36 13 -36 16 0 26 8 31 22 l8 23 4
-22 4 -23 893 0 892 0 2 167 c1 93 5 193 9 223 4 30 6 58 5 63 -3 10 6 9 78
-14 54 -17 85 -20 180 -17 98 3 115 1 112 -12 -1 -10 2 -9 13 4 8 11 15 28 15
37 0 10 8 24 18 31 33 23 44 55 30 81 -10 16 -13 110 -15 382 -1 221 -5 379
-12 408 -11 46 -77 186 -103 217 -7 9 -35 24 -63 34 -84 31 -167 76 -225 120
-30 23 -75 54 -101 68 -25 15 -67 45 -95 68 -27 22 -60 43 -74 46 -14 4 -42
18 -63 32 -42 28 -62 23 -29 -8 26 -25 27 -44 6 -146 -38 -186 -130 -305 -296
-388 -145 -71 -137 -72 -244 32 -162 159 -260 339 -280 513 -5 49 -4 59 15 78
19 19 19 21 4 21 -10 0 -25 -5 -33 -10z"/>
<path d="M3113 213 c-18 -7 -16 -33 2 -33 8 0 15 9 15 20 0 11 -1 20 -2 19 -2
0 -9 -3 -15 -6z"/>
<path d="M3090 120 c0 -5 5 -10 10 -10 6 0 10 5 10 10 0 6 -4 10 -10 10 -5 0
-10 -4 -10 -10z"/>
</g>
</svg>
